<svg width="258" height="54" viewBox="0 0 258 54" fill="none" xmlns="http://www.w3.org/2000/svg">
<path d="M8 33H21" stroke="white" stroke-width="2" stroke-linecap="round" stroke-linejoin="round"/>
<path d="M3 33H3.01" stroke="white" stroke-width="2" stroke-linecap="round" stroke-linejoin="round"/>
<path d="M8 27H21" stroke="white" stroke-width="2" stroke-linecap="round" stroke-linejoin="round"/>
<path d="M3 27H3.01" stroke="white" stroke-width="2" stroke-linecap="round" stroke-linejoin="round"/>
<path d="M8 21H21" stroke="white" stroke-width="2" stroke-linecap="round" stroke-linejoin="round"/>
<path d="M3 21H3.01" stroke="white" stroke-width="2" stroke-linecap="round" stroke-linejoin="round"/>
<rect x="48" y="10" width="162" height="34" rx="10" fill="#489CFF"/>
<g filter="url(#filter0_d_99_3059)">
<path d="M91 23C91 21.4087 90.3679 19.8826 89.2426 18.7574C88.1174 17.6321 86.5913 17 85 17C83.4087 17 81.8826 17.6321 80.7574 18.7574C79.6321 19.8826 79 21.4087 79 23C79 30 76 32 76 32H94C94 32 91 30 91 23Z" stroke="white" stroke-width="2" stroke-linecap="round" stroke-linejoin="round"/>
<path d="M86.73 36C86.5542 36.3031 86.3019 36.5547 85.9982 36.7295C85.6946 36.9044 85.3504 36.9965 85 36.9965C84.6496 36.9965 84.3054 36.9044 84.0018 36.7295C83.6982 36.5547 83.4458 36.3031 83.27 36" stroke="white" stroke-width="2" stroke-linecap="round" stroke-linejoin="round"/>
</g>
<path d="M116.2 21.816H118.696V33H116.2L110.872 25.992V33H108.376V21.816H110.712L116.2 29.016V21.816ZM123.134 28.696C123.134 29.4 123.331 29.976 123.726 30.424C124.131 30.8613 124.643 31.08 125.262 31.08C125.891 31.08 126.403 30.8613 126.798 30.424C127.203 29.976 127.406 29.4 127.406 28.696C127.406 27.992 127.203 27.416 126.798 26.968C126.403 26.52 125.891 26.296 125.262 26.296C124.643 26.296 124.131 26.52 123.726 26.968C123.331 27.416 123.134 27.992 123.134 28.696ZM129.822 28.696C129.822 29.944 129.39 30.9947 128.526 31.848C127.662 32.7013 126.574 33.128 125.262 33.128C123.961 33.128 122.878 32.7013 122.014 31.848C121.15 30.9947 120.718 29.944 120.718 28.696C120.718 27.448 121.15 26.3973 122.014 25.544C122.878 24.68 123.961 24.248 125.262 24.248C126.574 24.248 127.662 24.68 128.526 25.544C129.39 26.3973 129.822 27.448 129.822 28.696ZM134.312 26.12V29.976C134.312 30.3067 134.398 30.568 134.569 30.76C134.739 30.9413 134.942 31.032 135.177 31.032C135.625 31.032 136.003 30.8293 136.313 30.424L137.209 32.104C136.462 32.7867 135.673 33.128 134.841 33.128C134.019 33.128 133.321 32.856 132.745 32.312C132.179 31.768 131.897 31.0267 131.897 30.088V26.12H130.889V24.392H131.897V21.816H134.312V24.392H136.393V26.12H134.312ZM140.895 33H138.495V24.392H140.895V33ZM138.687 23.304C138.421 23.0267 138.287 22.6907 138.287 22.296C138.287 21.9013 138.421 21.5707 138.687 21.304C138.965 21.0267 139.301 20.888 139.695 20.888C140.09 20.888 140.421 21.0267 140.687 21.304C140.965 21.5707 141.103 21.9013 141.103 22.296C141.103 22.6907 140.965 23.0267 140.687 23.304C140.421 23.5707 140.09 23.704 139.695 23.704C139.301 23.704 138.965 23.5707 138.687 23.304ZM146.031 23.896V24.472H148.111V26.2H146.031V33H143.615V26.2H142.607V24.472H143.615V23.944C143.615 23.0053 143.898 22.264 144.463 21.72C145.039 21.1653 145.749 20.888 146.591 20.888C147.445 20.888 148.218 21.208 148.911 21.848L148.047 23.464C147.695 23.0587 147.306 22.856 146.879 22.856C146.634 22.856 146.431 22.9467 146.271 23.128C146.111 23.2987 146.031 23.5547 146.031 23.896ZM152.005 33H149.605V24.392H152.005V33ZM149.797 23.304C149.53 23.0267 149.397 22.6907 149.397 22.296C149.397 21.9013 149.53 21.5707 149.797 21.304C150.074 21.0267 150.41 20.888 150.805 20.888C151.199 20.888 151.53 21.0267 151.797 21.304C152.074 21.5707 152.213 21.9013 152.213 22.296C152.213 22.6907 152.074 23.0267 151.797 23.304C151.53 23.5707 151.199 23.704 150.805 23.704C150.41 23.704 150.074 23.5707 149.797 23.304ZM156.677 33H154.277V21.128H156.677V27.224L159.349 24.376H162.373L159.093 27.864L162.501 33H159.653L157.461 29.704L156.677 30.52V33ZM170.885 33H168.63V31.96C168.011 32.7387 167.243 33.128 166.326 33.128C165.419 33.128 164.656 32.8667 164.038 32.344C163.419 31.8107 163.11 31.1067 163.11 30.232C163.11 29.3467 163.43 28.6853 164.07 28.248C164.71 27.8107 165.584 27.592 166.694 27.592H168.486V27.544C168.486 26.6267 168 26.168 167.03 26.168C166.614 26.168 166.171 26.2533 165.702 26.424C165.243 26.584 164.854 26.7867 164.534 27.032L163.462 25.48C164.592 24.6587 165.883 24.248 167.334 24.248C168.379 24.248 169.232 24.5093 169.894 25.032C170.555 25.5547 170.885 26.3813 170.885 27.512V33ZM168.47 29.72V29.304H166.966C166.006 29.304 165.526 29.6027 165.526 30.2C165.526 30.5093 165.638 30.7493 165.862 30.92C166.096 31.08 166.427 31.16 166.854 31.16C167.28 31.16 167.654 31.032 167.974 30.776C168.304 30.5093 168.47 30.1573 168.47 29.72ZM179.554 30.328C179.554 31.1707 179.239 31.848 178.61 32.36C177.991 32.872 177.202 33.128 176.242 33.128C175.602 33.128 174.935 33.016 174.242 32.792C173.548 32.5573 172.924 32.216 172.37 31.768L173.426 30.264C174.322 30.9573 175.276 31.304 176.29 31.304C176.599 31.304 176.844 31.2453 177.026 31.128C177.207 31 177.298 30.8347 177.298 30.632C177.298 30.4293 177.17 30.2427 176.914 30.072C176.668 29.9013 176.306 29.7413 175.826 29.592C175.356 29.4427 174.994 29.3147 174.738 29.208C174.492 29.1013 174.21 28.9467 173.89 28.744C173.239 28.3387 172.914 27.7413 172.914 26.952C172.914 26.152 173.234 25.5013 173.874 25C174.514 24.4987 175.34 24.248 176.354 24.248C177.367 24.248 178.38 24.5893 179.394 25.272L178.498 26.872C177.751 26.36 177.004 26.104 176.258 26.104C175.522 26.104 175.154 26.3067 175.154 26.712C175.154 26.936 175.271 27.112 175.506 27.24C175.74 27.368 176.13 27.5173 176.674 27.688C177.218 27.8587 177.602 27.992 177.826 28.088C178.06 28.1733 178.338 28.312 178.658 28.504C179.255 28.8667 179.554 29.4747 179.554 30.328ZM183.786 33H181.386V24.392H183.786V33ZM181.578 23.304C181.311 23.0267 181.178 22.6907 181.178 22.296C181.178 21.9013 181.311 21.5707 181.578 21.304C181.855 21.0267 182.191 20.888 182.586 20.888C182.981 20.888 183.311 21.0267 183.578 21.304C183.855 21.5707 183.994 21.9013 183.994 22.296C183.994 22.6907 183.855 23.0267 183.578 23.304C183.311 23.5707 182.981 23.704 182.586 23.704C182.191 23.704 181.855 23.5707 181.578 23.304Z" fill="white"/>
<path d="M254 36V34C254 32.9391 253.579 31.9217 252.828 31.1716C252.078 30.4214 251.061 30 250 30H242C240.939 30 239.922 30.4214 239.172 31.1716C238.421 31.9217 238 32.9391 238 34V36" stroke="white" stroke-width="2" stroke-linecap="round" stroke-linejoin="round"/>
<path d="M246 26C248.209 26 250 24.2091 250 22C250 19.7909 248.209 18 246 18C243.791 18 242 19.7909 242 22C242 24.2091 243.791 26 246 26Z" stroke="white" stroke-width="2" stroke-linecap="round" stroke-linejoin="round"/>
<defs>
<filter id="filter0_d_99_3059" x="69" y="15" width="32" height="32" filterUnits="userSpaceOnUse" color-interpolation-filters="sRGB">
<feFlood flood-opacity="0" result="BackgroundImageFix"/>
<feColorMatrix in="SourceAlpha" type="matrix" values="0 0 0 0 0 0 0 0 0 0 0 0 0 0 0 0 0 0 127 0" result="hardAlpha"/>
<feOffset dy="4"/>
<feGaussianBlur stdDeviation="2"/>
<feComposite in2="hardAlpha" operator="out"/>
<feColorMatrix type="matrix" values="0 0 0 0 0 0 0 0 0 0 0 0 0 0 0 0 0 0 0.25 0"/>
<feBlend mode="normal" in2="BackgroundImageFix" result="effect1_dropShadow_99_3059"/>
<feBlend mode="normal" in="SourceGraphic" in2="effect1_dropShadow_99_3059" result="shape"/>
</filter>
</defs>
</svg>
